<?xml version="1.0" encoding="UTF-8" standalone="no"?>
<svg
   xmlns:dc="http://purl.org/dc/elements/1.1/"
   xmlns:cc="http://creativecommons.org/ns#"
   xmlns:rdf="http://www.w3.org/1999/02/22-rdf-syntax-ns#"
   xmlns:svg="http://www.w3.org/2000/svg"
   xmlns="http://www.w3.org/2000/svg"
   xmlns:sodipodi="http://sodipodi.sourceforge.net/DTD/sodipodi-0.dtd"
   xmlns:inkscape="http://www.inkscape.org/namespaces/inkscape"
   enable-background="new 0 0 100 100"
   version="1.1"
   viewBox="0 0 100 100"
   xml:space="preserve"
   id="svg6"
   sodipodi:docname="user.svg"
   inkscape:version="0.92.2 5c3e80d, 2017-08-06"><metadata
     id="metadata12"><rdf:RDF><cc:Work
         rdf:about=""><dc:format>image/svg+xml</dc:format><dc:type
           rdf:resource="http://purl.org/dc/dcmitype/StillImage" /></cc:Work></rdf:RDF></metadata><defs
     id="defs10" /><sodipodi:namedview
     pagecolor="#ffffff"
     bordercolor="#666666"
     borderopacity="1"
     objecttolerance="10"
     gridtolerance="10"
     guidetolerance="10"
     inkscape:pageopacity="0"
     inkscape:pageshadow="2"
     inkscape:window-width="1768"
     inkscape:window-height="1054"
     id="namedview8"
     showgrid="false"
     inkscape:zoom="2.36"
     inkscape:cx="50"
     inkscape:cy="50"
     inkscape:window-x="152"
     inkscape:window-y="0"
     inkscape:window-maximized="1"
     inkscape:current-layer="svg6" /><path
     d="M65.904,52.834c-4.734,3.725-10.695,5.955-17.172,5.955c-6.316,0-12.146-2.119-16.821-5.68C16.654,55.575,5,68.803,5,84.757  c0,17.711,14.356,6.197,32.065,6.197h25.868C80.643,90.954,95,102.468,95,84.757C95,68.051,82.22,54.333,65.904,52.834z"
     id="path2" /><path
     d="m48.732 55.057c13.285 0 24.092-10.809 24.092-24.095 0-13.285-10.807-24.094-24.092-24.094s-24.093 10.809-24.093 24.094c1e-3 13.286 10.809 24.095 24.093 24.095z"
     id="path4" /><path
     style="fill:#ffffff;stroke-width:0.42372882"
     d="M 44.449153,54.482199 C 39.491395,53.487076 34.133894,50.426123 30.875332,46.726931 27.398842,42.780343 24.760478,35.983706 24.760478,30.974576 c 0,-2.924747 1.185992,-7.506232 2.783371,-10.752158 3.810434,-7.742924 12.662486,-13.2141068 21.326345,-13.1811622 5.939842,0.022586 11.916526,2.5715294 16.373466,6.9829742 3.595226,3.558526 5.412751,6.626284 6.542213,11.042425 2.120538,8.291237 -0.0705,16.303076 -6.149086,22.484969 -5.660361,5.756562 -13.789287,8.415571 -21.187634,6.930575 z"
     id="path14"
     inkscape:connector-curvature="0" /><path
     style="fill:#ffffff;stroke-width:0.42372882"
     d="M 8.3982901,93.523018 C 6.0933092,92.117443 5.4642323,90.14332 5.4797948,84.364407 c 0.01554,-5.770441 0.6880142,-8.753964 3.0560195,-13.558433 1.9845077,-4.026387 3.8533227,-6.474529 7.4441427,-9.751802 3.339564,-3.047956 8.900321,-6.067183 13.171766,-7.151643 l 2.49918,-0.634506 2.740355,1.652785 c 9.215267,5.557987 21.596823,5.1862 30.250424,-0.908344 1.441237,-1.015032 2.809987,-0.998112 6.71117,0.08296 5.453699,1.511297 9.476979,3.911594 13.781894,8.222309 4.287394,4.293168 6.451296,7.676426 8.138576,12.724639 0.998017,2.986002 1.135542,4.07129 1.154411,9.110169 0.02411,6.43571 -0.407055,7.843954 -2.859322,9.339189 -2.023826,1.234 -5.275093,1.055284 -13.80225,-0.75868 L 70.29661,91.144068 H 49.957627 29.618644 l -7.512061,1.588983 C 13.603586,94.531641 10.35894,94.71862 8.3982901,93.523018 Z"
     id="path16"
     inkscape:connector-curvature="0" /></svg>